HIERARCHY
ROOT joint_Root
{
	OFFSET 0.0 0.0 0.0
	CHANNELS 6 Xposition Yposition Zposition Zrotation Xrotation Yrotation 
	JOINT Hips
	{
		OFFSET -17.1583 93.1646 452.98
		CHANNELS 6 Xposition Yposition Zposition Zrotation Xrotation Yrotation 
		JOINT Spine
		{
			OFFSET 15.7357 0.0 0.0
			CHANNELS 6 Xposition Yposition Zposition Zrotation Xrotation Yrotation 
			JOINT Chest
			{
				OFFSET 8.98455 -0.406207 0.0
				CHANNELS 6 Xposition Yposition Zposition Zrotation Xrotation Yrotation 
				JOINT Neck
				{
					OFFSET 16.3773 0.0 0.0
					CHANNELS 6 Xposition Yposition Zposition Zrotation Xrotation Yrotation 
					JOINT Head
					{
						OFFSET 6.45672 0.0 0.0
						CHANNELS 6 Xposition Yposition Zposition Zrotation Xrotation Yrotation 
						End Site
						{
							OFFSET 0.0 0.0 0.0
						}
					}
				}
				JOINT Shoulder_L
				{
					OFFSET 12.9942 -0.242716 4.98039
					CHANNELS 6 Xposition Yposition Zposition Zrotation Xrotation Yrotation 
					JOINT UpperArm_L
					{
						OFFSET 5.34809 0.0 0.0
						CHANNELS 6 Xposition Yposition Zposition Zrotation Xrotation Yrotation 
						JOINT LowerArm_L
						{
							OFFSET 24.3286 1.87007e-05 0.0
							CHANNELS 6 Xposition Yposition Zposition Zrotation Xrotation Yrotation 
							JOINT Hand_L
							{
								OFFSET 22.2916 0.0 0.0
								CHANNELS 6 Xposition Yposition Zposition Zrotation Xrotation Yrotation 
								End Site
								{
									OFFSET 0.0 0.0 0.0
								}
							}
						}
					}
				}
				JOINT Shoulder_R
				{
					OFFSET 12.9945 -0.242716 -4.98039
					CHANNELS 6 Xposition Yposition Zposition Zrotation Xrotation Yrotation 
					JOINT UpperArm_R
					{
						OFFSET -5.34813 0.0 0.0
						CHANNELS 6 Xposition Yposition Zposition Zrotation Xrotation Yrotation 
						JOINT LowerArm_R
						{
							OFFSET -24.3289 0.000322201 0.0
							CHANNELS 6 Xposition Yposition Zposition Zrotation Xrotation Yrotation 
							JOINT Hand_R
							{
								OFFSET -22.2915 -0.000108084 0.0
								CHANNELS 6 Xposition Yposition Zposition Zrotation Xrotation Yrotation 
								End Site
								{
									OFFSET 0.0 0.0 0.0
								}
							}
						}
					}
				}
			}
		}
		JOINT UpperLeg_L
		{
			OFFSET -2.19248 -6.46944 0.0
			CHANNELS 6 Xposition Yposition Zposition Zrotation Xrotation Yrotation 
			JOINT LowerLeg_L
			{
				OFFSET 39.0811 0.0 -1.23785e-05
				CHANNELS 6 Xposition Yposition Zposition Zrotation Xrotation Yrotation 
				JOINT Foot_L
				{
					OFFSET 40.9854 0.0 -1.26872e-05
					CHANNELS 6 Xposition Yposition Zposition Zrotation Xrotation Yrotation 
					JOINT Toes_L
					{
						OFFSET 11.7543 0.0 0.0
						CHANNELS 6 Xposition Yposition Zposition Zrotation Xrotation Yrotation 
						End Site
						{
							OFFSET 0.0 0.0 0.0
						}
					}
				}
			}
		}
		JOINT UpperLeg_R
		{
			OFFSET -2.19251 6.46944 0.0
			CHANNELS 6 Xposition Yposition Zposition Zrotation Xrotation Yrotation 
			JOINT LowerLeg_R
			{
				OFFSET -39.0811 -0.00228153 -0.0401928
				CHANNELS 6 Xposition Yposition Zposition Zrotation Xrotation Yrotation 
				JOINT Foot_R
				{
					OFFSET -40.9854 0.0 0.0
					CHANNELS 6 Xposition Yposition Zposition Zrotation Xrotation Yrotation 
					JOINT Toes_R
					{
						OFFSET -11.7543 0.0 0.0
						CHANNELS 6 Xposition Yposition Zposition Zrotation Xrotation Yrotation 
						End Site
						{
							OFFSET 0.0 0.0 0.0
						}
					}
				}
			}
		}
	}
}
MOTION
Frames:	4
Frame Time:	0.0333333
0.000000 0.000000 0.000000 0.000000 0.000000 -0.000000 -3.232140 91.891200 -2.564470 83.231700 -0.116571 4.933610 15.735700 0.000005 -0.000001 70.040100 86.870600 -66.884500 8.984550 -0.406207 -0.000000 -1.809850 -2.399450 6.272760 16.377300 -0.000001 -0.000001 10.603300 3.658580 5.396270 6.456720 -0.000001 -0.000000 5.246830 6.947160 5.977570 12.994200 -0.242716 4.980390 -92.509400 7.466390 -71.362500 5.348090 -0.000007 -0.000001 -74.708700 27.881100 3.213620 24.328600 0.000019 0.000005 13.024600 28.559300 -25.820600 22.291600 -0.000001 0.000005 -4.372350 5.046400 6.316420 12.994500 -0.242716 -4.980390 87.825600 6.585700 -71.682400 -5.348130 -0.000001 -0.000004 -64.017700 7.623230 -8.074760 -24.328900 0.000322 -0.000009 24.472400 -22.718000 -130.314000 -22.291500 -0.000108 -0.000004 59.477700 5.681700 -21.592500 -2.192480 -6.469440 -0.000000 -171.101000 2.543650 -5.442190 39.081100 -0.000007 -0.000012 0.422321 -0.727625 30.132400 40.985400 -0.000006 -0.000013 0.586004 7.258510 -75.835600 11.754300 -0.000000 0.000003 0.000546 0.157873 -10.174000 -2.192510 6.469440 -0.000001 -168.894000 6.887440 -177.780000 -39.081100 -0.002282 -0.040193 0.144052 -0.472285 16.592400 -40.985400 0.000008 0.000006 5.646610 0.255292 -70.263600 -11.754300 -0.000006 -0.000006 -0.010318 0.273666 -5.454420
0.000000 0.000000 0.000000 0.000000 0.000000 -0.000000 -3.232220 91.890900 -2.551580 83.256200 -0.085834 4.941710 15.735700 0.000005 -0.000001 70.243500 86.850600 -67.106800 8.984550 -0.406207 -0.000000 -1.765330 -2.389320 6.235910 16.377300 -0.000001 -0.000001 10.636800 3.623060 5.534700 6.456720 -0.000001 -0.000000 5.245180 6.916660 6.135440 12.994200 -0.242716 4.980390 -92.494200 7.420390 -71.362000 5.348090 -0.000007 -0.000001 -74.714600 27.893900 3.134860 24.328600 0.000019 0.000005 13.021100 28.570000 -25.806600 22.291600 -0.000001 0.000005 -4.314060 5.041910 6.415070 12.994500 -0.242716 -4.980390 87.818200 6.615810 -71.702000 -5.348130 -0.000001 -0.000004 -63.705100 7.776500 -8.162500 -24.328900 0.000322 -0.000009 26.443000 -24.398700 -129.712000 -22.291500 -0.000108 -0.000004 59.069200 5.676670 -23.611800 -2.192480 -6.469440 -0.000000 -171.124000 2.534160 -5.428210 39.081100 -0.000007 -0.000012 0.419502 -0.723200 30.117500 40.985400 -0.000006 -0.000013 0.591383 7.272090 -75.827600 11.754300 -0.000000 0.000003 0.000465 0.159399 -10.112100 -2.192510 6.469440 -0.000001 -168.925000 6.915570 -177.783000 -39.081100 -0.002282 -0.040193 0.144191 -0.472060 16.615400 -40.985400 0.000008 0.000006 5.640320 0.243880 -70.270600 -11.754300 -0.000006 -0.000006 -0.010057 0.271732 -5.533510
0.000000 0.000000 0.000000 0.000000 0.000000 -0.000000 -3.236330 91.889200 -2.540700 83.235100 -0.045967 4.953960 15.735700 0.000005 -0.000001 70.395800 86.833700 -67.271600 8.984550 -0.406207 -0.000000 -1.728360 -2.382840 6.211780 16.377300 -0.000001 -0.000001 10.676700 3.544230 5.695940 6.456720 -0.000001 -0.000000 5.261270 6.874780 6.289560 12.994200 -0.242716 4.980390 -92.484800 7.389220 -71.355000 5.348090 -0.000007 -0.000001 -74.675300 27.978100 3.020660 24.328600 0.000019 0.000005 12.974500 28.546000 -25.740600 22.291600 -0.000001 0.000005 -4.337870 5.044010 6.368850 12.994500 -0.242716 -4.980390 87.845200 6.554280 -71.756100 -5.348130 -0.000001 -0.000004 -64.093200 7.185090 -8.279110 -24.328900 0.000322 -0.000009 24.911200 -22.934800 -129.998000 -22.291500 -0.000108 -0.000004 58.887700 5.679760 -22.736000 -2.192480 -6.469440 -0.000000 -171.102000 2.552200 -5.424400 39.081100 -0.000007 -0.000012 0.421454 -0.726084 30.134000 40.985400 -0.000006 -0.000013 0.597890 7.295440 -75.839600 11.754300 -0.000000 0.000003 0.000561 0.157568 -10.186400 -2.192510 6.469440 -0.000001 -168.905000 6.976260 -177.748000 -39.081100 -0.002282 -0.040193 0.144156 -0.472768 16.588000 -40.985400 0.000008 0.000006 5.646960 0.258071 -70.305700 -11.754300 -0.000006 -0.000006 -0.010497 0.274982 -5.400580
0.000000 0.000000 0.000000 0.000000 0.000000 -0.000000 -3.237800 91.882400 -2.546370 83.239900 0.036316 4.980950 15.735700 0.000005 -0.000001 70.348900 86.815000 -67.244400 8.984550 -0.406207 -0.000000 -1.695020 -2.397750 6.172780 16.377300 -0.000001 -0.000001 10.717300 3.500260 5.739410 6.456720 -0.000001 -0.000000 5.324140 6.767360 6.489420 12.994200 -0.242716 4.980390 -92.475600 7.381320 -71.400400 5.348090 -0.000007 -0.000001 -74.658900 27.963000 3.006260 24.328600 0.000019 0.000005 12.994300 28.513400 -25.799500 22.291600 -0.000001 0.000005 -4.286010 5.042440 6.403230 12.994500 -0.242716 -4.980390 87.875800 6.457550 -71.747700 -5.348130 -0.000001 -0.000004 -65.009900 6.025050 -8.467670 -24.328900 0.000322 -0.000009 21.611700 -19.788000 -130.515000 -22.291500 -0.000108 -0.000004 58.836800 5.677980 -18.982800 -2.192480 -6.469440 -0.000000 -171.107000 2.622780 -5.438800 39.081100 -0.000007 -0.000012 0.419309 -0.721525 30.163800 40.985400 -0.000006 -0.000013 0.610998 7.338330 -75.795500 11.754300 -0.000000 0.000003 0.000647 0.155914 -10.253500 -2.192510 6.469440 -0.000001 -168.924000 7.098900 -177.766000 -39.081100 -0.002282 -0.040193 0.145538 -0.475732 16.643200 -40.985400 0.000008 0.000006 5.653750 0.289544 -70.295300 -11.754300 -0.000006 -0.000006 -0.010010 0.271382 -5.547830
